<mxfile host="app.diagrams.net" agent="Mozilla/5.0 (Windows NT 10.0; Win64; x64) AppleWebKit/537.36 (KHTML, like Gecko) Chrome/133.0.0.0 Safari/537.36 OPR/118.0.0.0 (Edition std-1)" version="27.1.1">
  <diagram name="Page-1" id="MMRG923M680wyyKBxc3z">
    <mxGraphModel dx="1385" dy="802" grid="1" gridSize="10" guides="1" tooltips="1" connect="1" arrows="1" fold="1" page="1" pageScale="1" pageWidth="850" pageHeight="1100" math="0" shadow="0">
      <root>
        <mxCell id="0" />
        <mxCell id="1" parent="0" />
        <mxCell id="2Em1edY2LKHw983rF3Xw-1" style="edgeStyle=orthogonalEdgeStyle;rounded=0;orthogonalLoop=1;jettySize=auto;html=1;entryX=0.5;entryY=0;entryDx=0;entryDy=0;" edge="1" parent="1" source="2Em1edY2LKHw983rF3Xw-2" target="2Em1edY2LKHw983rF3Xw-5">
          <mxGeometry relative="1" as="geometry">
            <mxPoint x="180" y="130" as="targetPoint" />
          </mxGeometry>
        </mxCell>
        <mxCell id="2Em1edY2LKHw983rF3Xw-2" value="InÃ­cio&lt;br&gt;(Mouse Click)" style="ellipse;whiteSpace=wrap;html=1;" vertex="1" parent="1">
          <mxGeometry x="99.5" y="20" width="160" height="50" as="geometry" />
        </mxCell>
        <mxCell id="2Em1edY2LKHw983rF3Xw-3" style="edgeStyle=orthogonalEdgeStyle;rounded=0;orthogonalLoop=1;jettySize=auto;html=1;exitX=0.5;exitY=1;exitDx=0;exitDy=0;entryX=0.5;entryY=0;entryDx=0;entryDy=0;" edge="1" parent="1" source="2Em1edY2LKHw983rF3Xw-5" target="2Em1edY2LKHw983rF3Xw-8">
          <mxGeometry relative="1" as="geometry">
            <mxPoint x="180" y="280" as="targetPoint" />
          </mxGeometry>
        </mxCell>
        <mxCell id="2Em1edY2LKHw983rF3Xw-4" value="Sim" style="edgeLabel;html=1;align=center;verticalAlign=middle;resizable=0;points=[];" vertex="1" connectable="0" parent="2Em1edY2LKHw983rF3Xw-3">
          <mxGeometry x="-0.2295" y="1" relative="1" as="geometry">
            <mxPoint as="offset" />
          </mxGeometry>
        </mxCell>
        <mxCell id="2Em1edY2LKHw983rF3Xw-5" value="btn_triangulo.BackColor == Color.LightGray" style="rhombus;whiteSpace=wrap;html=1;" vertex="1" parent="1">
          <mxGeometry x="39.99" y="97.5" width="279.01" height="92.69" as="geometry" />
        </mxCell>
        <mxCell id="2Em1edY2LKHw983rF3Xw-6" value="" style="edgeStyle=orthogonalEdgeStyle;rounded=0;orthogonalLoop=1;jettySize=auto;html=1;" edge="1" parent="1" source="2Em1edY2LKHw983rF3Xw-8" target="2Em1edY2LKHw983rF3Xw-12">
          <mxGeometry relative="1" as="geometry" />
        </mxCell>
        <mxCell id="2Em1edY2LKHw983rF3Xw-7" style="edgeStyle=orthogonalEdgeStyle;rounded=0;orthogonalLoop=1;jettySize=auto;html=1;exitX=0;exitY=0.5;exitDx=0;exitDy=0;" edge="1" parent="1" source="2Em1edY2LKHw983rF3Xw-8">
          <mxGeometry relative="1" as="geometry">
            <mxPoint x="245" y="560" as="targetPoint" />
            <Array as="points">
              <mxPoint x="50" y="265" />
              <mxPoint x="50" y="600" />
              <mxPoint x="245" y="600" />
            </Array>
          </mxGeometry>
        </mxCell>
        <mxCell id="2Em1edY2LKHw983rF3Xw-8" value="i &amp;lt;= vetorRetangulo.length&lt;br&gt;i += 2" style="shape=hexagon;perimeter=hexagonPerimeter2;whiteSpace=wrap;html=1;fixedSize=1;" vertex="1" parent="1">
          <mxGeometry x="70" y="240" width="220" height="50" as="geometry" />
        </mxCell>
        <mxCell id="2Em1edY2LKHw983rF3Xw-9" style="edgeStyle=orthogonalEdgeStyle;rounded=0;orthogonalLoop=1;jettySize=auto;html=1;exitX=1;exitY=0.5;exitDx=0;exitDy=0;" edge="1" parent="1" source="2Em1edY2LKHw983rF3Xw-12">
          <mxGeometry relative="1" as="geometry">
            <mxPoint x="180" y="220" as="targetPoint" />
            <Array as="points">
              <mxPoint x="313" y="370" />
              <mxPoint x="313" y="220" />
            </Array>
          </mxGeometry>
        </mxCell>
        <mxCell id="2Em1edY2LKHw983rF3Xw-10" value="" style="edgeStyle=orthogonalEdgeStyle;rounded=0;orthogonalLoop=1;jettySize=auto;html=1;" edge="1" parent="1" source="2Em1edY2LKHw983rF3Xw-12" target="2Em1edY2LKHw983rF3Xw-14">
          <mxGeometry relative="1" as="geometry" />
        </mxCell>
        <mxCell id="2Em1edY2LKHw983rF3Xw-11" value="Sim" style="edgeLabel;html=1;align=center;verticalAlign=middle;resizable=0;points=[];" vertex="1" connectable="0" parent="2Em1edY2LKHw983rF3Xw-10">
          <mxGeometry x="-0.504" y="-1" relative="1" as="geometry">
            <mxPoint as="offset" />
          </mxGeometry>
        </mxCell>
        <mxCell id="2Em1edY2LKHw983rF3Xw-12" value="vetorTriangulo[i] == 0" style="rhombus;whiteSpace=wrap;html=1;" vertex="1" parent="1">
          <mxGeometry x="94.19" y="330" width="170.62" height="80" as="geometry" />
        </mxCell>
        <mxCell id="2Em1edY2LKHw983rF3Xw-13" style="edgeStyle=orthogonalEdgeStyle;rounded=0;orthogonalLoop=1;jettySize=auto;html=1;entryX=0.5;entryY=0;entryDx=0;entryDy=0;" edge="1" parent="1" source="2Em1edY2LKHw983rF3Xw-14">
          <mxGeometry relative="1" as="geometry">
            <mxPoint x="180.01000000000022" y="540" as="targetPoint" />
          </mxGeometry>
        </mxCell>
        <mxCell id="2Em1edY2LKHw983rF3Xw-14" value="vetorTriangulo[i] = Mouse.X&lt;br&gt;vetorTriangulo[i+ 1] = Mouse.Y" style="whiteSpace=wrap;html=1;" vertex="1" parent="1">
          <mxGeometry x="81.04999999999995" y="450" width="197.91" height="60" as="geometry" />
        </mxCell>
        <mxCell id="2Em1edY2LKHw983rF3Xw-15" style="edgeStyle=orthogonalEdgeStyle;rounded=0;orthogonalLoop=1;jettySize=auto;html=1;entryX=0.5;entryY=0;entryDx=0;entryDy=0;" edge="1" parent="1" source="2Em1edY2LKHw983rF3Xw-17" target="2Em1edY2LKHw983rF3Xw-21">
          <mxGeometry relative="1" as="geometry" />
        </mxCell>
        <mxCell id="2Em1edY2LKHw983rF3Xw-16" value="Sim" style="edgeLabel;html=1;align=center;verticalAlign=middle;resizable=0;points=[];" vertex="1" connectable="0" parent="2Em1edY2LKHw983rF3Xw-15">
          <mxGeometry x="-0.5501" y="1" relative="1" as="geometry">
            <mxPoint x="-1" y="11" as="offset" />
          </mxGeometry>
        </mxCell>
        <mxCell id="2Em1edY2LKHw983rF3Xw-17" value="vetorTriangulo[5] != 0" style="rhombus;whiteSpace=wrap;html=1;rounded=0;" vertex="1" parent="1">
          <mxGeometry x="244.88" y="594" width="145.12" height="66" as="geometry" />
        </mxCell>
        <mxCell id="2Em1edY2LKHw983rF3Xw-18" style="edgeStyle=orthogonalEdgeStyle;rounded=0;orthogonalLoop=1;jettySize=auto;html=1;exitX=1;exitY=0.5;exitDx=0;exitDy=0;entryX=0.5;entryY=0;entryDx=0;entryDy=0;" edge="1" parent="1" source="2Em1edY2LKHw983rF3Xw-19" target="2Em1edY2LKHw983rF3Xw-17">
          <mxGeometry relative="1" as="geometry" />
        </mxCell>
        <mxCell id="2Em1edY2LKHw983rF3Xw-19" value="break" style="rhombus;whiteSpace=wrap;html=1;" vertex="1" parent="1">
          <mxGeometry x="135.01" y="540" width="90" height="45" as="geometry" />
        </mxCell>
        <mxCell id="2Em1edY2LKHw983rF3Xw-20" style="edgeStyle=orthogonalEdgeStyle;rounded=0;orthogonalLoop=1;jettySize=auto;html=1;" edge="1" parent="1" source="2Em1edY2LKHw983rF3Xw-21">
          <mxGeometry relative="1" as="geometry">
            <mxPoint x="317.44" y="760" as="targetPoint" />
          </mxGeometry>
        </mxCell>
        <mxCell id="2Em1edY2LKHw983rF3Xw-21" value="cor = verificarCor()" style="rounded=0;whiteSpace=wrap;html=1;" vertex="1" parent="1">
          <mxGeometry x="262.44" y="700" width="110" height="30" as="geometry" />
        </mxCell>
        <mxCell id="2Em1edY2LKHw983rF3Xw-22" value="" style="edgeStyle=orthogonalEdgeStyle;rounded=0;orthogonalLoop=1;jettySize=auto;html=1;" edge="1" parent="1" source="2Em1edY2LKHw983rF3Xw-24" target="2Em1edY2LKHw983rF3Xw-26">
          <mxGeometry relative="1" as="geometry" />
        </mxCell>
        <mxCell id="2Em1edY2LKHw983rF3Xw-23" value="Sim" style="edgeLabel;html=1;align=center;verticalAlign=middle;resizable=0;points=[];" vertex="1" connectable="0" parent="2Em1edY2LKHw983rF3Xw-22">
          <mxGeometry x="-0.1901" y="1" relative="1" as="geometry">
            <mxPoint as="offset" />
          </mxGeometry>
        </mxCell>
        <mxCell id="2Em1edY2LKHw983rF3Xw-24" value="color != Color.Empty" style="rhombus;whiteSpace=wrap;html=1;rounded=0;" vertex="1" parent="1">
          <mxGeometry x="251.79000000000002" y="760" width="131.31" height="60" as="geometry" />
        </mxCell>
        <mxCell id="2Em1edY2LKHw983rF3Xw-25" style="edgeStyle=orthogonalEdgeStyle;rounded=0;orthogonalLoop=1;jettySize=auto;html=1;entryX=0.5;entryY=0;entryDx=0;entryDy=0;" edge="1" parent="1" source="2Em1edY2LKHw983rF3Xw-26" target="2Em1edY2LKHw983rF3Xw-28">
          <mxGeometry relative="1" as="geometry" />
        </mxCell>
        <mxCell id="2Em1edY2LKHw983rF3Xw-26" value="formas[&#39;Triangulos&#39;].Add(propriedades do triangulo)" style="whiteSpace=wrap;html=1;rounded=0;" vertex="1" parent="1">
          <mxGeometry x="164.65" y="860" width="305.57" height="40" as="geometry" />
        </mxCell>
        <mxCell id="2Em1edY2LKHw983rF3Xw-27" value="" style="edgeStyle=orthogonalEdgeStyle;rounded=0;orthogonalLoop=1;jettySize=auto;html=1;" edge="1" parent="1" source="2Em1edY2LKHw983rF3Xw-28" target="2Em1edY2LKHw983rF3Xw-30">
          <mxGeometry relative="1" as="geometry" />
        </mxCell>
        <mxCell id="2Em1edY2LKHw983rF3Xw-28" value="ZerarArrays()" style="whiteSpace=wrap;html=1;rounded=0;" vertex="1" parent="1">
          <mxGeometry x="260.7" y="930" width="113.51" height="30" as="geometry" />
        </mxCell>
        <mxCell id="2Em1edY2LKHw983rF3Xw-29" value="" style="edgeStyle=orthogonalEdgeStyle;rounded=0;orthogonalLoop=1;jettySize=auto;html=1;entryX=0.5;entryY=0;entryDx=0;entryDy=0;" edge="1" parent="1" source="2Em1edY2LKHw983rF3Xw-30" target="2Em1edY2LKHw983rF3Xw-32">
          <mxGeometry relative="1" as="geometry">
            <mxPoint x="317.45499999999987" y="1050" as="targetPoint" />
          </mxGeometry>
        </mxCell>
        <mxCell id="2Em1edY2LKHw983rF3Xw-30" value="Invalidate()" style="whiteSpace=wrap;html=1;rounded=0;" vertex="1" parent="1">
          <mxGeometry x="260.7" y="990" width="113.51" height="30" as="geometry" />
        </mxCell>
        <mxCell id="2Em1edY2LKHw983rF3Xw-31" style="edgeStyle=orthogonalEdgeStyle;rounded=0;orthogonalLoop=1;jettySize=auto;html=1;entryX=0.5;entryY=0;entryDx=0;entryDy=0;" edge="1" parent="1" source="2Em1edY2LKHw983rF3Xw-32" target="2Em1edY2LKHw983rF3Xw-33">
          <mxGeometry relative="1" as="geometry" />
        </mxCell>
        <mxCell id="2Em1edY2LKHw983rF3Xw-32" value="Entrar em Forms Paint" style="whiteSpace=wrap;html=1;rounded=0;" vertex="1" parent="1">
          <mxGeometry x="251.79" y="1040" width="130" height="30" as="geometry" />
        </mxCell>
        <mxCell id="2Em1edY2LKHw983rF3Xw-33" value="A" style="ellipse;whiteSpace=wrap;html=1;rounded=0;" vertex="1" parent="1">
          <mxGeometry x="288.96" y="1110" width="55.65" height="45" as="geometry" />
        </mxCell>
        <mxCell id="2Em1edY2LKHw983rF3Xw-34" style="edgeStyle=orthogonalEdgeStyle;rounded=0;orthogonalLoop=1;jettySize=auto;html=1;entryX=0.5;entryY=0;entryDx=0;entryDy=0;" edge="1" parent="1" source="2Em1edY2LKHw983rF3Xw-35" target="2Em1edY2LKHw983rF3Xw-37">
          <mxGeometry relative="1" as="geometry" />
        </mxCell>
        <mxCell id="2Em1edY2LKHw983rF3Xw-35" value="A" style="ellipse;whiteSpace=wrap;html=1;rounded=0;" vertex="1" parent="1">
          <mxGeometry x="626.78" y="20" width="55.65" height="45" as="geometry" />
        </mxCell>
        <mxCell id="2Em1edY2LKHw983rF3Xw-36" style="edgeStyle=orthogonalEdgeStyle;rounded=0;orthogonalLoop=1;jettySize=auto;html=1;entryX=0.5;entryY=0;entryDx=0;entryDy=0;" edge="1" parent="1" source="2Em1edY2LKHw983rF3Xw-37" target="2Em1edY2LKHw983rF3Xw-39">
          <mxGeometry relative="1" as="geometry" />
        </mxCell>
        <mxCell id="2Em1edY2LKHw983rF3Xw-37" value="DesenharTudo(e)" style="whiteSpace=wrap;html=1;rounded=0;" vertex="1" parent="1">
          <mxGeometry x="597.98" y="97.5" width="113.25" height="50" as="geometry" />
        </mxCell>
        <mxCell id="2Em1edY2LKHw983rF3Xw-38" style="edgeStyle=orthogonalEdgeStyle;rounded=0;orthogonalLoop=1;jettySize=auto;html=1;entryX=0.5;entryY=0;entryDx=0;entryDy=0;" edge="1" parent="1" source="2Em1edY2LKHw983rF3Xw-39" target="2Em1edY2LKHw983rF3Xw-42">
          <mxGeometry relative="1" as="geometry" />
        </mxCell>
        <mxCell id="2Em1edY2LKHw983rF3Xw-39" value="Entrar em DesenharTudo()" style="whiteSpace=wrap;html=1;rounded=0;" vertex="1" parent="1">
          <mxGeometry x="597.98" y="177.5" width="113.25" height="50" as="geometry" />
        </mxCell>
        <mxCell id="2Em1edY2LKHw983rF3Xw-40" style="edgeStyle=orthogonalEdgeStyle;rounded=0;orthogonalLoop=1;jettySize=auto;html=1;entryX=0.5;entryY=0;entryDx=0;entryDy=0;" edge="1" parent="1" source="2Em1edY2LKHw983rF3Xw-42" target="2Em1edY2LKHw983rF3Xw-44">
          <mxGeometry relative="1" as="geometry" />
        </mxCell>
        <mxCell id="2Em1edY2LKHw983rF3Xw-41" style="edgeStyle=orthogonalEdgeStyle;rounded=0;orthogonalLoop=1;jettySize=auto;html=1;entryX=0;entryY=0.5;entryDx=0;entryDy=0;" edge="1" parent="1" source="2Em1edY2LKHw983rF3Xw-42" target="2Em1edY2LKHw983rF3Xw-54">
          <mxGeometry relative="1" as="geometry">
            <Array as="points">
              <mxPoint x="490" y="313" />
              <mxPoint x="490" y="935" />
            </Array>
          </mxGeometry>
        </mxCell>
        <mxCell id="2Em1edY2LKHw983rF3Xw-42" value="foreach var(pos, pen) in formas[&quot;Triangulos&quot;]" style="shape=hexagon;perimeter=hexagonPerimeter2;whiteSpace=wrap;html=1;fixedSize=1;" vertex="1" parent="1">
          <mxGeometry x="530.21" y="287.5" width="248.8" height="50" as="geometry" />
        </mxCell>
        <mxCell id="2Em1edY2LKHw983rF3Xw-43" style="edgeStyle=orthogonalEdgeStyle;rounded=0;orthogonalLoop=1;jettySize=auto;html=1;entryX=0.5;entryY=0;entryDx=0;entryDy=0;" edge="1" parent="1" source="2Em1edY2LKHw983rF3Xw-44" target="2Em1edY2LKHw983rF3Xw-49">
          <mxGeometry relative="1" as="geometry" />
        </mxCell>
        <mxCell id="2Em1edY2LKHw983rF3Xw-44" value="DesenharTriangulo(var - propriedades do triangulo)" style="whiteSpace=wrap;html=1;rounded=0;" vertex="1" parent="1">
          <mxGeometry x="510.22" y="372.5" width="288.79" height="50" as="geometry" />
        </mxCell>
        <mxCell id="2Em1edY2LKHw983rF3Xw-45" value="&lt;b&gt;&lt;font style=&quot;font-size: 10px;&quot;&gt;Primitiva&lt;/font&gt;&lt;/b&gt;" style="text;html=1;align=center;verticalAlign=middle;whiteSpace=wrap;rounded=0;" vertex="1" parent="1">
          <mxGeometry x="510.22" y="352.5" width="60" height="20" as="geometry" />
        </mxCell>
        <mxCell id="2Em1edY2LKHw983rF3Xw-47" value="&lt;div&gt;DesenharReta(x0, y0, x1, y1, caneta, e);&lt;/div&gt;" style="whiteSpace=wrap;html=1;rounded=0;" vertex="1" parent="1">
          <mxGeometry x="532.77" y="540" width="243.67" height="40" as="geometry" />
        </mxCell>
        <mxCell id="2Em1edY2LKHw983rF3Xw-48" style="edgeStyle=orthogonalEdgeStyle;rounded=0;orthogonalLoop=1;jettySize=auto;html=1;entryX=0.5;entryY=0;entryDx=0;entryDy=0;" edge="1" parent="1" source="2Em1edY2LKHw983rF3Xw-49" target="2Em1edY2LKHw983rF3Xw-47">
          <mxGeometry relative="1" as="geometry" />
        </mxCell>
        <mxCell id="2Em1edY2LKHw983rF3Xw-49" value="Entra em DesenharTriangulo()" style="rounded=0;whiteSpace=wrap;html=1;" vertex="1" parent="1">
          <mxGeometry x="566.03" y="457.5" width="177.17" height="40" as="geometry" />
        </mxCell>
        <mxCell id="2Em1edY2LKHw983rF3Xw-50" style="edgeStyle=orthogonalEdgeStyle;rounded=0;orthogonalLoop=1;jettySize=auto;html=1;entryX=0.5;entryY=0;entryDx=0;entryDy=0;" edge="1" parent="1" source="2Em1edY2LKHw983rF3Xw-51" target="2Em1edY2LKHw983rF3Xw-53">
          <mxGeometry relative="1" as="geometry">
            <mxPoint x="654.605" y="717.5" as="targetPoint" />
          </mxGeometry>
        </mxCell>
        <mxCell id="2Em1edY2LKHw983rF3Xw-51" value="Entra em DesenharReta()" style="rounded=0;whiteSpace=wrap;html=1;" vertex="1" parent="1">
          <mxGeometry x="566.03" y="760" width="177.17" height="40" as="geometry" />
        </mxCell>
        <mxCell id="2Em1edY2LKHw983rF3Xw-52" style="edgeStyle=orthogonalEdgeStyle;rounded=0;orthogonalLoop=1;jettySize=auto;html=1;exitX=1;exitY=0.5;exitDx=0;exitDy=0;" edge="1" parent="1" source="2Em1edY2LKHw983rF3Xw-53">
          <mxGeometry relative="1" as="geometry">
            <mxPoint x="655" y="257.5" as="targetPoint" />
            <Array as="points">
              <mxPoint x="810" y="860" />
              <mxPoint x="810" y="258" />
            </Array>
            <mxPoint x="810" y="870" as="sourcePoint" />
          </mxGeometry>
        </mxCell>
        <mxCell id="2Em1edY2LKHw983rF3Xw-53" value="e.Graphics.DrawLine(caneta, x0, y0, x1, y1)" style="rounded=0;whiteSpace=wrap;html=1;" vertex="1" parent="1">
          <mxGeometry x="534.62" y="840" width="240" height="40" as="geometry" />
        </mxCell>
        <mxCell id="2Em1edY2LKHw983rF3Xw-54" value="Fim" style="ellipse;whiteSpace=wrap;html=1;" vertex="1" parent="1">
          <mxGeometry x="578" y="910" width="160" height="50" as="geometry" />
        </mxCell>
        <mxCell id="2Em1edY2LKHw983rF3Xw-57" value="" style="edgeStyle=orthogonalEdgeStyle;rounded=0;orthogonalLoop=1;jettySize=auto;html=1;entryX=0.5;entryY=0;entryDx=0;entryDy=0;" edge="1" parent="1" source="2Em1edY2LKHw983rF3Xw-47" target="2Em1edY2LKHw983rF3Xw-55">
          <mxGeometry relative="1" as="geometry">
            <mxPoint x="655" y="580" as="sourcePoint" />
            <mxPoint x="655" y="760" as="targetPoint" />
          </mxGeometry>
        </mxCell>
        <mxCell id="2Em1edY2LKHw983rF3Xw-60" style="edgeStyle=orthogonalEdgeStyle;rounded=0;orthogonalLoop=1;jettySize=auto;html=1;" edge="1" parent="1" source="2Em1edY2LKHw983rF3Xw-55" target="2Em1edY2LKHw983rF3Xw-58">
          <mxGeometry relative="1" as="geometry" />
        </mxCell>
        <mxCell id="2Em1edY2LKHw983rF3Xw-55" value="DesenharReta(x1, y1, x2, y2, caneta, e);" style="rounded=0;whiteSpace=wrap;html=1;" vertex="1" parent="1">
          <mxGeometry x="530.21" y="607" width="250" height="40" as="geometry" />
        </mxCell>
        <mxCell id="2Em1edY2LKHw983rF3Xw-59" style="edgeStyle=orthogonalEdgeStyle;rounded=0;orthogonalLoop=1;jettySize=auto;html=1;entryX=0.5;entryY=0;entryDx=0;entryDy=0;" edge="1" parent="1" source="2Em1edY2LKHw983rF3Xw-58" target="2Em1edY2LKHw983rF3Xw-51">
          <mxGeometry relative="1" as="geometry" />
        </mxCell>
        <mxCell id="2Em1edY2LKHw983rF3Xw-58" value="DesenharReta(x2, y2, x0, y0, caneta, e);" style="rounded=0;whiteSpace=wrap;html=1;" vertex="1" parent="1">
          <mxGeometry x="530.21" y="680" width="250" height="40" as="geometry" />
        </mxCell>
      </root>
    </mxGraphModel>
  </diagram>
</mxfile>
